# xmcd
#
# Track frame offsets: 
#        150
#        13392
#        30148
#        47993
#        62293
#        73258
#        88052
#        102473
#        117237
#        131566
#        143089
#        156342
#        170146
#        184794
#        200057
#        215006
#        227581
#        244541
#        256302
#        271647
#
# Disc length: 3827 seconds
#
# Revision: 5
# Processed by: cddbd v1.5.2PL0 Copyright (c) Steve Scherf et al.
# Submitted via: ExactAudioCopy v1.3
#
DISCID=230ef114
DTITLE=Billie Holiday - That Old Devil Called Love CD2
DYEAR=2006
DGENRE=Jazz
TTITLE0=East Of The Sun
TTITLE1=Stormy Weather
TTITLE2=I've Got My Love To Keep Me Warm
TTITLE3=God Bless The Child
TTITLE4=Them There Eyes
TTITLE5=Keeps On Raining
TTITLE6=Deep Song
TTITLE7=Do Your Duty
TTITLE8=Guilty
TTITLE9=Big Stuff
TTITLE10=Somebody's On My Mind
TTITLE11=Say It Isn't So
TTITLE12=I Can't Face The Music
TTITLE13=Ain't Nobody's Business If I Do
TTITLE14=Baby, Get Lost
TTITLE15=Gimme A Pigfoot And A Bottle Of Beer
TTITLE16=Everything I Have Is Yours
TTITLE17=Remember?
TTITLE18=Tenderly
TTITLE19=You're My Thrill
EXTD=YEAR: 2006
EXTT0=
EXTT1=
EXTT2=
EXTT3=
EXTT4=
EXTT5=
EXTT6=
EXTT7=
EXTT8=
EXTT9=
EXTT10=
EXTT11=
EXTT12=
EXTT13=
EXTT14=
EXTT15=
EXTT16=
EXTT17=
EXTT18=
EXTT19=
PLAYORDER=
